<svg id="Capa_1" data-name="Capa 1" xmlns="http://www.w3.org/2000/svg" viewBox="0 0 1279.96 444.96"><path d="M1392.54,372a1.5,1.5,0,0,0,0-3,1.5,1.5,0,0,0,0,3Z" transform="translate(-114.03 -289.52)" style="fill:#09c6dc"/><ellipse cx="198.06" cy="200.85" rx="191.56" ry="194.35" style="fill:#fff"/><path d="M312.1,302.52a182.48,182.48,0,0,1,130.79,55,189.51,189.51,0,0,1,0,265.79,183.14,183.14,0,0,1-261.59,0,189.51,189.51,0,0,1,0-265.79,182.49,182.49,0,0,1,130.8-55m0-13C202.71,289.52,114,379.44,114,490.37S202.71,691.21,312.1,691.21s198.06-89.92,198.06-200.84S421.48,289.52,312.1,289.52Z" transform="translate(-114.03 -289.52)" style="fill:#22a0db"/><polygon points="325.39 157.83 237.96 157.83 237.96 63.56 158.17 63.56 158.17 157.83 70.74 157.83 70.74 243.86 158.17 243.86 158.17 338.14 237.96 338.14 237.96 243.86 325.39 243.86 325.39 157.83" style="fill:#09c6dc"/><path d="M340.08,729.41c-4.48-10.58-13.85-37.89-10.68-75.2,0-.4.05-.79.06-1.18,0-2.13.6-21.66,14.51-51,18.19-38.36,50-75.51,94.62-110.42.18-.14.35-.28.52-.44,2.74-2.46,9.6-8.92,14.08-15.81,5.93,13.06,5.7,18.92,4.69,19.62a7.82,7.82,0,0,0-1.89,1.82c-3,4.12-18.43,26.82-27.29,68.87a10.12,10.12,0,0,0,2,8.38,8.25,8.25,0,0,0,6.34,3.17,7.56,7.56,0,0,0,3.64-.94c21.86-11.87,97.33-60,150.73-180.62a17.67,17.67,0,0,0,.88-2.53c.74-2.84,5.1-17.35,20.33-32a50.3,50.3,0,0,0-1.24,17.61,7.45,7.45,0,0,1,0,1.7c-2,17.69-22.21,172.13-124.06,276.16C496.72,640.92,507,621,504,612.44a7.38,7.38,0,0,0-4.94-4.78,8.93,8.93,0,0,0-2.57-.38,9.94,9.94,0,0,0-7.25,3.27c-5.09,5.5-25.28,26.37-71.58,64-5.89,4.8-13.53,10.34-21.62,16.2-11.41,8.26-23.2,16.81-31.94,24.59-4.73,4.22-8.8,6.08-13.11,8A60.05,60.05,0,0,0,340.08,729.41Z" transform="translate(-114.03 -289.52)" style="fill:#0071bd"/><path d="M606.61,374.72c0,1.47.13,2.95.28,4.44a4.8,4.8,0,0,1,0,.75c-.95,8.35-6.65,52.83-25.68,108.37a507.29,507.29,0,0,1-39.65,88.31,401.24,401.24,0,0,1-35,51.41c3.23-9.25,2.72-13.83,1.58-17.06a11.92,11.92,0,0,0-7.9-7.6,13.58,13.58,0,0,0-3.85-.56,14.45,14.45,0,0,0-10.55,4.72c-5,5.44-25.06,26.12-71.12,63.6-5.79,4.72-13.38,10.22-21.42,16-11.5,8.33-23.38,17-32.29,24.88-4.23,3.77-7.83,5.42-12,7.32-2.12,1-4.39,2-6.8,3.35-4.6-12.54-11.06-36.63-8.39-68.1.05-.53.07-1,.08-1.52,0-2,.57-20.64,14.07-49.1a247.06,247.06,0,0,1,31.88-49.57c16.58-20.36,37.26-40.29,61.46-59.24.25-.2.49-.4.74-.62a114.45,114.45,0,0,0,9.66-9.88l.24-.28a28.89,28.89,0,0,1,1.91,8,12.29,12.29,0,0,0-1.56,1.75c-3.1,4.25-19,27.64-28.06,70.59a14.65,14.65,0,0,0,2.89,12.15,12.69,12.69,0,0,0,9.83,4.83,12.19,12.19,0,0,0,5.79-1.48c22.17-12,98.72-60.84,152.69-182.76a20.91,20.91,0,0,0,1.13-3.22c.5-2,2.88-9.91,10-19.55m6.54-19.2a3.1,3.1,0,0,0-2.13.89c-17.16,15.82-22.13,31.84-23.1,35.6a12.82,12.82,0,0,1-.65,1.83c-52.54,118.69-125.76,166-148.76,178.5a3,3,0,0,1-1.49.39c-2.42,0-4.58-3-3.92-6.12,8.73-41.46,24-63.64,26.53-67.15a3.41,3.41,0,0,1,.83-.78c6.94-4.83-2.57-24.72-7.6-34.09-.36,8.32-15.17,21.82-16.76,23.25a3.11,3.11,0,0,1-.28.23C327.8,572.64,325,647.32,325,653c0,.28,0,.56,0,.84-3.31,38.9,6.65,67.21,11.29,78a4.06,4.06,0,0,0,3.57,2.68,3.13,3.13,0,0,0,1.92-.66c8.72-6.7,15.86-6.62,25.35-15.08,14.74-13.14,39.1-29,53.4-40.66,46.36-37.72,66.66-58.65,72-64.47a5.48,5.48,0,0,1,3.95-1.83,4.38,4.38,0,0,1,1.29.19c8.39,2.48-7.43,33.72-27,62-3.19,4.6-3.82,6.28-3.05,6.28,1.94,0,12.8-10.65,14.39-12.17C592.68,562.7,614,397.5,615.84,380.92a12.36,12.36,0,0,0,0-2.65A45.41,45.41,0,0,1,617,362c.89-3.34-1.42-6.46-3.87-6.46ZM450.09,459.66s1.16,1.92,2.77,4.93a5,5,0,0,0-2.77-4.93Z" transform="translate(-114.03 -289.52)" style="fill:#fff"/><path d="M684.28,407.76a5,5,0,0,1-5-5V370.93H643.05v31.83a5,5,0,0,1-5,5H625.71a5,5,0,0,1-5-5V324.22a5,5,0,0,1,5-5h12.34a5,5,0,0,1,5,5v27.86h36.23V324.22a5,5,0,0,1,5-5h12.48a5,5,0,0,1,5,5v78.54a5,5,0,0,1-5,5Z" transform="translate(-114.03 -289.52)" style="fill:#0071bd"/><path d="M749.22,409c-22.31,0-37.89-14-37.89-34,0-20.57,16-34.94,39-34.94,22.39,0,38,14,38,34C788.4,398.1,768.09,409,749.22,409Zm.85-51.27c-11.9,0-16.12,9.1-16.12,16.9,0,9.82,6.51,16.68,15.84,16.68s15.84-7.11,15.84-16.91C765.63,368.25,762.36,357.77,750.07,357.77Z" transform="translate(-114.03 -289.52)" style="fill:#0071bd"/><path d="M817.15,408.92c-7.93,0-15.75-1.58-21.47-4.34a5,5,0,0,1-2.46-6.36l3.12-7.8a5,5,0,0,1,7-2.55,33.16,33.16,0,0,0,14.08,3.48c4.14,0,8.33-1.05,8.33-3.39,0-1,0-2.79-9.22-5.59-17.92-5.25-21.69-14.18-21.69-20.75,0-12.68,11.79-21.54,28.68-21.54a45,45,0,0,1,19.06,4A5,5,0,0,1,845,350.5L841.89,358a5,5,0,0,1-6.91,2.51,26,26,0,0,0-11.74-2.7c-4,0-6.48,1.39-6.48,2.69s2.85,2.69,9.54,4.78c9.23,2.89,21.51,8.3,21.51,21.79C847.81,400.33,835.77,408.92,817.15,408.92Z" transform="translate(-114.03 -289.52)" style="fill:#0071bd"/><path d="M862.38,430.83a5,5,0,0,1-5-5V364.77c0-7-.26-12.56-.56-18.15a5,5,0,0,1,5-5.26H873a5,5,0,0,1,4.93,4.12c5.57-3.56,12.44-5.4,20.31-5.4,19.75,0,34.07,14.15,34.07,33.66,0,24.25-18.76,35.3-36.19,35.3a36.38,36.38,0,0,1-16.41-3.68v20.47a5,5,0,0,1-5,5Zm17.73-48.16c1.71,5,7.26,8.33,13.89,8.33,10.07,0,15.85-6.12,15.85-16.79,0-7.37-4-16-15.42-16-6.6,0-12.39,3.78-14.09,9.2a9.88,9.88,0,0,0-.62,2.7v9.67A13.92,13.92,0,0,0,880.11,382.67Z" transform="translate(-114.03 -289.52)" style="fill:#0071bd"/><path d="M946.61,407.76a5,5,0,0,1-5-5v-56.4a5,5,0,0,1,5-5H949c-5.24-1.35-9-5.64-9-10.85,0-6.51,5.5-11.41,12.8-11.41s12.6,4.85,12.65,11.31a10.28,10.28,0,0,1-2.91,7.52,12.49,12.49,0,0,1-6.17,3.43h2.67a5,5,0,0,1,5,5v56.4a5,5,0,0,1-5,5Z" transform="translate(-114.03 -289.52)" style="fill:#0071bd"/><path d="M1004.46,408.92c-7.05,0-12.86-1.93-16.81-5.58-5.81-5-6.48-12.92-6.48-18.41V359.16h-5.64a5,5,0,0,1-5-5v-7.8a5,5,0,0,1,5-5h5.64v-8.52A5,5,0,0,1,985.1,328l12.19-2.68a4.94,4.94,0,0,1,1.07-.12,5,5,0,0,1,5,5v11.2h12.87a5,5,0,0,1,5,5v7.8a5,5,0,0,1-5,5h-12.87v25.42c0,5.95,1.74,5.95,4.36,5.95a28.82,28.82,0,0,0,6.14-.57,4.51,4.51,0,0,1,1.09-.13,5,5,0,0,1,5,4.64l.57,7.69a5,5,0,0,1-3.39,5.1A41.68,41.68,0,0,1,1004.46,408.92Z" transform="translate(-114.03 -289.52)" style="fill:#0071bd"/><path d="M1049.41,409c-17.06,0-26-10.66-26-21.2,0-9.28,5.43-24.57,40.64-25.88-1-2.44-3.65-4.31-10-4.31a35.09,35.09,0,0,0-15.52,3.61,5,5,0,0,1-2.35.58,4.91,4.91,0,0,1-1.68-.29,5,5,0,0,1-2.93-2.77l-2.83-6.76a5,5,0,0,1,2.25-6.34c6.67-3.56,15.74-5.6,24.9-5.6,19.76,0,31.1,10.23,31.1,28.07v21.09a60.81,60.81,0,0,0,1,12.44,5,5,0,0,1-4.88,6.08h-11.34a5,5,0,0,1-4.66-3.17A36.28,36.28,0,0,1,1049.41,409ZM1065,379c-7.4.25-19.07,1.61-19.07,7.67,0,3.95,3.68,4.79,6.77,4.79,6.89,0,10.76-3.43,12-6.36a4.19,4.19,0,0,0,.32-1.35Z" transform="translate(-114.03 -289.52)" style="fill:#0071bd"/><rect x="986.68" y="25.5" width="22.48" height="92.74" rx="5" style="fill:#0071bd"/><path d="M670.76,540.48a5,5,0,0,1-5-4.82l-1.26-35.09-8.12,35.5a5,5,0,0,1-4.87,3.89h-5.43a5,5,0,0,1-4.89-4l-7-32.59L633,535.68a5,5,0,0,1-5,4.8h-6.82a5,5,0,0,1-5-5.21L620,447a5,5,0,0,1,5-4.78h9.13A5,5,0,0,1,639,446.1l9.46,42.71.93,4.47c.32-1.44.64-2.93,1-4.47l9.88-42.75a5,5,0,0,1,4.88-3.88h9.13a5,5,0,0,1,5,4.81l3.46,88.3a5,5,0,0,1-5,5.19Z" transform="translate(-114.03 -289.52)" style="fill:#09c6dc"/><path d="M709.84,541.79c-14.93,0-24.58-14.51-24.58-37,0-23.45,9.51-39.2,23.67-39.2,15.84,0,21.45,18.79,21.45,34.87,0,2.22-.13,4-.22,5.22l0,.51a5,5,0,0,1-5,4.65H702.49c1,7.61,3.93,12,8.33,12a13.15,13.15,0,0,0,8.23-2.42,5,5,0,0,1,7.74,3.4l1.24,8.25a5,5,0,0,1-2,4.8A27.17,27.17,0,0,1,709.84,541.79Zm3.26-49.17c-.47-3.6-1.51-6.55-2.88-7.94a2.4,2.4,0,0,0-1.86-.79c-2.09,0-4.19,3.66-5.34,8.73Z" transform="translate(-114.03 -289.52)" style="fill:#09c6dc"/><path d="M750.72,541.79a13.64,13.64,0,0,1-12.14-7.35c-2.4-4-3.47-9.89-3.47-19V485.85h-1.17a5,5,0,0,1-5-5v-8.78a5,5,0,0,1,5-5h1.17V456.88a5,5,0,0,1,3-4.6l7.08-3a5.13,5.13,0,0,1,2-.4,5,5,0,0,1,5,5v13.21h5.36a5,5,0,0,1,5,5v8.78a5,5,0,0,1-5,5h-5.36v29.2c0,4.68.56,6.61.86,7.3a5.16,5.16,0,0,0,1.77-.36,4.89,4.89,0,0,1,2-.41,5,5,0,0,1,5,4.8l.33,8.65a5,5,0,0,1-2.26,4.37A16.83,16.83,0,0,1,750.72,541.79Z" transform="translate(-114.03 -289.52)" style="fill:#09c6dc"/><path d="M769.81,540.48a5,5,0,0,1-5-5V491.86c0-8.18-.1-14.22-.33-19.58a5,5,0,0,1,5-5.21h6.33a5,5,0,0,1,3.61,1.54,12.47,12.47,0,0,1,8-3,10.08,10.08,0,0,1,3.91.75,5,5,0,0,1,3.15,4.65V481.9a5,5,0,0,1-5,5,4.85,4.85,0,0,1-1.67-.29,2.26,2.26,0,0,0-.8-.1c-1.49,0-4,3.6-4.74,10.37a46.21,46.21,0,0,0-.29,4.8v33.8a5,5,0,0,1-5,5Z" transform="translate(-114.03 -289.52)" style="fill:#09c6dc"/><path d="M816.21,541.93c-14.18,0-24.09-15.47-24.09-37.63,0-26.71,12.43-38.67,24.75-38.67,14.45,0,24.16,15.12,24.16,37.63C841,530,828.56,541.93,816.21,541.93Zm.49-57.65c-4,0-7.26,8.81-7.26,19.63,0,12,4.14,19.37,7.1,19.37,2.54,0,7.09-6.56,7.09-19.63C823.63,493.33,820.39,484.28,816.7,484.28Z" transform="translate(-114.03 -289.52)" style="fill:#09c6dc"/><path d="M849.28,566.42a5,5,0,0,1-5-5V492.77c0-7.95-.16-14.26-.33-20.56a5,5,0,0,1,5-5.14h6.5a5,5,0,0,1,4.1,2.14,17.31,17.31,0,0,1,10.54-3.58c12.87,0,21.86,15.31,21.86,37.23,0,27-11.6,39.07-23.09,39.07a16.06,16.06,0,0,1-7.42-1.79v21.28a5,5,0,0,1-5,5Zm12.44-52.72c1,5.75,3.76,9.19,5.9,9.19,3.53,0,7.1-6.7,7.1-19.5,0-11.12-3.54-18.59-6.85-18.59-1.83,0-4.94,3.51-6,10.08a25.28,25.28,0,0,0-.43,3.92v10.87A35.56,35.56,0,0,0,861.72,513.7Z" transform="translate(-114.03 -289.52)" style="fill:#09c6dc"/><path d="M916.41,541.93c-14.18,0-24.09-15.47-24.09-37.63,0-26.71,12.43-38.67,24.74-38.67,14.46,0,24.17,15.12,24.17,37.63C941.23,530,928.76,541.93,916.41,541.93Zm.49-57.65c-4,0-7.26,8.81-7.26,19.63,0,12,4.13,19.37,7.1,19.37,2.54,0,7.09-6.56,7.09-19.63C923.83,493.33,920.59,484.28,916.9,484.28Z" transform="translate(-114.03 -289.52)" style="fill:#09c6dc"/><rect x="830.45" y="147.95" width="17.24" height="103.02" rx="5" style="fill:#09c6dc"/><path d="M973,540.48a5,5,0,0,1-5-5V472.07a5,5,0,0,1,5-5h7.24a5,5,0,0,1,5,5v63.41a5,5,0,0,1-5,5Zm3.45-74.15c-5.42,0-9.36-5.08-9.36-12.07s4-12.21,9.53-12.21,9.42,5,9.44,12.15a13.15,13.15,0,0,1-3.31,9.45A8.77,8.77,0,0,1,976.46,466.33Z" transform="translate(-114.03 -289.52)" style="fill:#09c6dc"/><path d="M1008.63,541.79a13.65,13.65,0,0,1-12.15-7.35c-2.4-4-3.46-9.89-3.46-19V485.85h-1.17a5,5,0,0,1-5-5v-8.78a5,5,0,0,1,5-5H993V456.88a5,5,0,0,1,3-4.6l7.07-3a5.16,5.16,0,0,1,2-.4,5,5,0,0,1,5,5v13.21h5.36a5,5,0,0,1,5,5v8.78a5,5,0,0,1-5,5h-5.36v29.2c0,4.68.56,6.61.87,7.3a5,5,0,0,0,1.76-.36,5,5,0,0,1,7,4.39L1020,535a5,5,0,0,1-2.25,4.37A16.87,16.87,0,0,1,1008.63,541.79Z" transform="translate(-114.03 -289.52)" style="fill:#09c6dc"/><path d="M1036.76,541.93c-10.11,0-17.17-9.55-17.17-23.22,0-16.23,8.79-26.53,23.78-28.3-.43-4.16-1.74-6.26-3.89-6.26a10,10,0,0,0-6.78,3.2,5,5,0,0,1-3.59,1.51,4.92,4.92,0,0,1-1.37-.19,5,5,0,0,1-3.52-3.75l-1.64-7.6a5,5,0,0,1,1.29-4.53,23.35,23.35,0,0,1,16.68-7.16c7.52,0,20.13,4,20.13,30.94v23.72a134.39,134.39,0,0,0,.63,14.63,5,5,0,0,1-5,5.56h-6.58a5,5,0,0,1-3.65-1.58A16.17,16.17,0,0,1,1036.76,541.93Zm6.93-33.52c-5.94,1.1-6.86,4.92-6.86,9s1.21,6,1.82,6c2.17,0,4-3.35,4.74-6.66a13.5,13.5,0,0,0,.3-2.62Z" transform="translate(-114.03 -289.52)" style="fill:#09c6dc"/><path d="M1098.13,540.48a5,5,0,0,1-5-5V498.93c0-8.09-1.73-13.73-4.21-13.73-1.57,0-3.92,3.17-4.8,7.73l0,.17a21.15,21.15,0,0,0-.37,4.26v38.12a5,5,0,0,1-5,5h-7.24a5,5,0,0,1-5-5V489.24c0-7.06-.1-12.12-.32-16.93a5,5,0,0,1,5-5.24h6.42a5,5,0,0,1,3.92,1.91,16,16,0,0,1,9.81-3.35c3.19,0,19.07,1.55,19.07,32v37.86a5,5,0,0,1-5,5Z" transform="translate(-114.03 -289.52)" style="fill:#09c6dc"/><path d="M1137.45,541.93c-14.18,0-24.08-15.47-24.08-37.63,0-26.71,12.43-38.67,24.74-38.67,14.46,0,24.17,15.12,24.17,37.63C1162.28,530,1149.81,541.93,1137.45,541.93Zm.5-57.65c-4,0-7.26,8.81-7.26,19.63,0,12,4.13,19.37,7.09,19.37,2.55,0,7.1-6.56,7.1-19.63C1144.88,493.33,1141.64,484.28,1138,484.28Z" transform="translate(-114.03 -289.52)" style="fill:#09c6dc"/><path d="M812.26,671c-9.51,0-17.2-2.54-21.22-4.92a5,5,0,0,1-2.17-6l2.54-7.08a5,5,0,0,1,7.09-2.71,31.14,31.14,0,0,0,13.65,3.2c6.14,0,12.76-3.1,12.76-9.9s-5.67-10.22-16.57-10.22a75.3,75.3,0,0,0-9.21.64l-.6.07a5.44,5.44,0,0,1-.57,0,5,5,0,0,1-5-5.73l4.85-33a5,5,0,0,1,4.94-4.28h35.87a5,5,0,0,1,5,5v7.82a5,5,0,0,1-5,5H814.32l-1.18,7.23h.16a38.65,38.65,0,0,1,18.51,4.29,24.2,24.2,0,0,1,13.36,22C845.17,658.72,831,671,812.26,671Z" transform="translate(-114.03 -289.52)" style="fill:#0071bd"/><path d="M885.49,671c-18.12,0-29.54-15.42-29.79-40.24,0-24.79,12.19-40.77,31.06-40.77,18.66,0,29.8,14.87,29.8,39.77C916.56,655.93,905.24,671,885.49,671Zm.7-63.82c-6.19,0-10.34,9.49-10.34,23.63,0,14,4,23,10.22,23,9.33,0,10.34-16.53,10.34-23.63C896.41,621.55,895.08,607.14,886.19,607.14Z" transform="translate(-114.03 -289.52)" style="fill:#0071bd"/><path d="M954.81,671c-18.86,0-31.53-13.77-31.53-34.27,0-13.89,5.08-26.19,14.31-34.65,7-6.29,16.23-10.23,26.74-11.42a58.93,58.93,0,0,1,8-.56,5,5,0,0,1,5,5v7.61a5,5,0,0,1-5,5h-.25c-.41,0-.85,0-1.31,0a38.39,38.39,0,0,0-5.32.4A27.37,27.37,0,0,0,950,615.36a31.68,31.68,0,0,1,7.08-.79c16.26,0,27.61,11.18,27.61,27.19C984.72,655.92,974.23,671,954.81,671Zm-11.5-31.88c.11,4.46,1.44,14.69,11.5,14.69,7.11,0,9.64-5.93,9.64-11.48,0-6.93-3.71-10.75-10.45-10.75a11.94,11.94,0,0,0-10.17,5.89,1.92,1.92,0,0,1-.18.31A2.48,2.48,0,0,0,943.31,639.08Z" transform="translate(-114.03 -289.52)" style="fill:#0071bd"/></svg>